# xmcd
#
# Track frame offsets: 
#        150
#        1729
#        25653
#        46912
#        65217
#        80157
#        101386
#        108986
#        127503
#        131238
#        147053
#        165872
#        185867
#        203576
#        230064
#        250322
#        270072
#        287886
#        293454
#        312361
#        327956
#
# Disc length: 4649 seconds
#
# Revision: 0
# Processed by: cddbd v1.5.2PL0 Copyright (c) Steve Scherf et al.
# Submitted via: ExactAudioCopy v1.0b1
#
DISCID=1e122715
DTITLE=Brad Paisley - Wheelhouse
DYEAR=2013
DGENRE=Country
TTITLE0=Bon Voyage
TTITLE1=Southern Comfort Zone
TTITLE2=Beat This Summer
TTITLE3=Outstanding In Our Field
TTITLE4=Pressing on a Bruise
TTITLE5=I Can't Change The World
TTITLE6=Onryo
TTITLE7=Karate
TTITLE8=Death of A Married Man
TTITLE9=Harvey Bodine
TTITLE10=Tin Can on A String
TTITLE11=Death of A Single Man
TTITLE12=The Mona Lisa
TTITLE13=Accidental Racist
TTITLE14=Runaway Train
TTITLE15=Those Crazy Christians
TTITLE16=Officially Alive
TTITLE17=Yankee Doodle Dixie
TTITLE18=Facebook Friends
TTITLE19=Get Even
TTITLE20=Southern Comfort Zone (Acoustic Version)
EXTD=
EXTT0=
EXTT1=
EXTT2=
EXTT3=
EXTT4=
EXTT5=
EXTT6=
EXTT7=
EXTT8=
EXTT9=
EXTT10=
EXTT11=
EXTT12=
EXTT13=
EXTT14=
EXTT15=
EXTT16=
EXTT17=
EXTT18=
EXTT19=
EXTT20=
PLAYORDER=
